<?xml version="1.0" standalone="no"?>
<!DOCTYPE svg PUBLIC "-//W3C//DTD SVG 20010904//EN"
 "http://www.w3.org/TR/2001/REC-SVG-20010904/DTD/svg10.dtd">
<svg version="1.0" xmlns="http://www.w3.org/2000/svg"
 width="352.000000pt" height="127.000000pt" viewBox="0 0 352.000000 127.000000"
 preserveAspectRatio="xMidYMid meet">

<g transform="translate(0.000000,127.000000) scale(0.100000,-0.100000)"
fill="#000000" stroke="none">
<path d="M778 1094 c-54 -16 -56 -21 -149 -257 l-53 -137 -68 0 c-37 0 -68 2
-68 5 0 2 11 35 25 72 27 70 22 89 -17 79 -27 -6 -28 4 -4 69 21 54 27 61 62
73 60 20 63 33 4 17 -28 -8 -53 -15 -54 -17 -1 -2 -28 -69 -60 -150 l-59 -148
-42 0 c-34 0 -45 -5 -63 -30 -34 -46 -30 -53 44 -62 22 -3 22 -3 -6 -75 -16
-41 -24 -75 -19 -79 5 -3 29 2 52 11 39 14 46 23 71 81 l28 64 69 0 69 0 -20
-50 c-11 -27 -29 -73 -40 -100 -11 -28 -20 -59 -20 -69 0 -17 4 -18 43 -8 23
5 43 11 45 12 5 4 182 447 182 457 0 6 -13 8 -30 6 -17 -3 -33 -1 -36 3 -3 5
14 53 36 108 41 98 42 99 86 111 24 7 44 17 44 21 0 5 -1 9 -2 8 -2 0 -24 -7
-50 -15z"/>
<path d="M2350 1058 c-19 -5 -40 -15 -47 -21 -17 -17 -138 -309 -163 -395 -25
-82 -23 -153 4 -181 11 -10 33 -16 60 -16 63 0 120 43 164 123 18 34 39 62 46
62 15 0 39 47 31 61 -4 5 -14 9 -23 9 -10 0 -23 9 -30 21 -21 33 -61 21 -97
-29 -29 -42 -29 -44 -11 -57 16 -12 17 -18 7 -44 -28 -67 -99 -96 -93 -38 3
25 31 104 91 256 l22 53 -36 -4 c-41 -5 -41 -5 10 108 30 66 36 72 69 78 20 4
36 11 36 16 0 6 -1 10 -2 9 -2 0 -19 -5 -38 -11z"/>
<path d="M2660 1049 c-26 -10 -31 -19 -165 -345 -79 -190 -82 -203 -55 -237
19 -23 29 -27 76 -27 52 0 56 1 69 32 17 42 12 48 -36 48 -21 0 -39 2 -39 4 0
2 13 35 29 72 16 38 48 113 70 168 l41 98 -24 -4 c-46 -9 -48 4 -14 87 29 69
37 80 73 96 42 18 21 25 -25 8z"/>
<path d="M1425 1025 c-27 -26 -30 -41 -15 -65 8 -12 10 -9 10 12 0 31 45 72
72 65 10 -3 16 -1 12 4 -10 17 -55 9 -79 -16z"/>
<path d="M1430 922 c9 -19 8 -31 -9 -62 l-20 -38 40 2 c22 2 48 11 57 20 16
17 15 18 -8 16 -42 -4 -47 -1 -43 23 2 12 -3 31 -12 42 -16 19 -16 19 -5 -3z"/>
<path d="M1686 725 c-36 -42 -66 -79 -66 -84 0 -5 13 -14 30 -21 27 -11 31
-10 54 16 l24 29 7 -27 c9 -36 -1 -74 -25 -98 -15 -15 -34 -20 -75 -20 -53 0
-56 -1 -69 -32 -7 -18 -11 -36 -9 -40 7 -14 142 -9 178 6 50 21 75 68 75 142
0 34 -5 75 -11 92 -9 27 -8 36 10 61 30 41 26 51 -18 51 -37 0 -44 -5 -105
-75z"/>
<path d="M1195 765 c-5 -2 -22 -6 -37 -9 -23 -5 -31 -19 -70 -126 l-43 -120
-35 6 c-70 13 -71 30 -13 147 18 37 31 72 28 77 -4 6 -23 10 -44 10 -37 0 -38
-1 -70 -75 -32 -73 -82 -135 -108 -135 -7 0 -13 2 -13 4 0 2 20 48 44 102 24
55 41 102 38 105 -4 3 -25 4 -47 2 l-40 -5 -43 -98 c-44 -104 -52 -158 -26
-184 35 -36 101 -28 140 15 17 19 18 18 35 -11 17 -27 24 -30 69 -30 47 0 51
2 64 33 l15 32 -6 -32 c-5 -33 -5 -33 34 -33 33 0 42 4 52 27 19 41 99 157
126 183 42 39 45 18 9 -64 -53 -123 -46 -146 48 -146 56 0 58 1 72 33 7 17 12
34 10 36 -2 2 -19 7 -38 10 l-34 6 34 80 c38 92 42 125 15 149 -25 23 -66 15
-120 -24 l-40 -29 6 34 c3 19 4 35 2 34 -2 0 -8 -2 -14 -4z"/>
<path d="M2755 742 c-80 -37 -135 -131 -121 -205 7 -37 48 -80 87 -92 57 -18
152 38 180 108 7 17 26 44 41 59 32 30 35 46 11 55 -10 3 -34 23 -53 45 -43
48 -87 57 -145 30z m45 -86 c0 -14 10 -32 22 -40 20 -14 20 -18 8 -42 -26 -48
-100 -71 -119 -36 -15 28 -1 72 36 108 40 40 53 43 53 10z"/>
<path d="M3203 750 c-127 -26 -223 -121 -223 -223 0 -62 25 -82 100 -81 l58 1
-15 -36 c-27 -64 -67 -115 -115 -146 -31 -20 -51 -41 -58 -63 -7 -18 -10 -36
-7 -39 3 -2 33 7 66 22 95 43 168 134 218 271 12 35 39 87 58 116 20 28 34 56
32 62 -4 12 -100 9 -105 -2 -31 -81 -152 -152 -152 -90 0 58 105 131 207 144
39 5 56 12 68 30 8 13 15 28 15 34 0 12 -85 12 -147 0z"/>
</g>
</svg>
